# xmcd
#
# Track frame offsets: 
#        150
#        13985
#        38395
#        57650
#        78422
#        105485
#        123187
#        144637
#
# Disc length: 2159 seconds
#
# Revision: 2
# Processed by: cddbd v1.5.2PL0 Copyright (c) Steve Scherf et al.
# Submitted via: ExactAudioCopyFreeDBPlugin 1.0
#
DISCID=63086d08
DTITLE=Teddy Pendegrass - It's Time For Love
DYEAR=1981
DGENRE=R and B Soul
TTITLE0=I Can't Live Without Your Love
TTITLE1=You're My Latest, My Greatest Inspiration
TTITLE2=9 Time Out Of 10
TTITLE3=Keep On Lovin' Me
TTITLE4=It's Time For Love
TTITLE5=She's Over Me
TTITLE6=I Can't Leave Your Love Alone
TTITLE7=You Must Live On
EXTD=Transferred from the 33rpm album in Barry Alexander's record coll
EXTD=ection on 11-24-01\n\ncontact Barry at barryal@pacbell.net
EXTT0=
EXTT1=
EXTT2=
EXTT3=
EXTT4=
EXTT5=
EXTT6=
EXTT7=
PLAYORDER=
